<?xml version="1.0" encoding="iso-8859-1"?>
<!-- Generator: Adobe Illustrator 19.0.0, SVG Export Plug-In . SVG Version: 6.00 Build 0)  -->
<svg version="1.1" id="Layer_1" xmlns="http://www.w3.org/2000/svg" xmlns:xlink="http://www.w3.org/1999/xlink" x="0px" y="0px"
	 viewBox="0 0 512 512" style="enable-background:new 0 0 512 512;" xml:space="preserve">
<path style="fill:#687492;" d="M256,436.966c-5.297,0-8.828-3.531-8.828-8.828v-35.31c0-5.297,3.531-8.828,8.828-8.828
	c5.297,0,8.828,3.531,8.828,8.828v35.31C264.828,433.434,261.297,436.966,256,436.966z"/>
<polygon style="fill:#ECF0F1;" points="17.655,392.828 494.345,392.828 494.345,75.034 17.655,75.034 "/>
<path style="fill:#D1D4D1;" d="M194.207,278.069l-7.062-5.297c-5.297-3.531-11.476-4.414-16.772-1.766l-7.945,3.531l-38.841-90.924
	l7.945-3.531c6.179-2.648,10.593-8.828,10.593-15.89v-8.828h105.931v8.828c0,5.297,2.648,10.593,7.062,14.124l7.062,5.297
	L194.207,278.069z M176.552,251.586c4.414,0,8.828,0.883,12.359,2.648l48.552-67.972c-3.531-4.414-6.179-8.828-7.062-14.124h-73.269
	c-1.766,7.945-6.179,14.124-12.359,19.421l25.6,60.91C173.021,251.586,174.786,251.586,176.552,251.586z"/>
<path style="fill:#677492;" d="M256,489.931c-19.421,0-35.31-15.89-35.31-35.31c0-19.421,15.89-35.31,35.31-35.31
	s35.31,15.89,35.31,35.31C291.31,474.041,275.421,489.931,256,489.931z M256,436.966c-9.71,0-17.655,7.945-17.655,17.655
	s7.945,17.655,17.655,17.655c9.71,0,17.655-7.945,17.655-17.655S265.71,436.966,256,436.966z"/>
<path style="fill:#687492;" d="M494.345,75.034H17.655C7.945,75.034,0,67.09,0,57.379V39.724c0-9.71,7.945-17.655,17.655-17.655
	h476.69c9.71,0,17.655,7.945,17.655,17.655v17.655C512,67.09,504.055,75.034,494.345,75.034"/>
<g>
	<path style="fill:#8697CB;" d="M441.379,357.517c-5.297,0-8.828-3.531-8.828-8.828V128c0-5.297,3.531-8.828,8.828-8.828
		s8.828,3.531,8.828,8.828v220.69C450.207,353.986,446.676,357.517,441.379,357.517z"/>
	<path style="fill:#8697CB;" d="M441.379,163.31h-35.31c-5.297,0-8.828-3.531-8.828-8.828s3.531-8.828,8.828-8.828h35.31
		c5.297,0,8.828,3.531,8.828,8.828S446.676,163.31,441.379,163.31z"/>
	<path style="fill:#8697CB;" d="M441.379,198.621h-52.966c-5.297,0-8.828-3.531-8.828-8.828s3.531-8.828,8.828-8.828h52.966
		c5.297,0,8.828,3.531,8.828,8.828S446.676,198.621,441.379,198.621z"/>
	<path style="fill:#8697CB;" d="M441.379,233.931h-35.31c-5.297,0-8.828-3.531-8.828-8.828c0-5.297,3.531-8.828,8.828-8.828h35.31
		c5.297,0,8.828,3.531,8.828,8.828C450.207,230.4,446.676,233.931,441.379,233.931z"/>
	<path style="fill:#8697CB;" d="M441.379,269.241h-52.966c-5.297,0-8.828-3.531-8.828-8.828c0-5.297,3.531-8.828,8.828-8.828h52.966
		c5.297,0,8.828,3.531,8.828,8.828C450.207,265.71,446.676,269.241,441.379,269.241z"/>
	<path style="fill:#8697CB;" d="M441.379,304.552h-35.31c-5.297,0-8.828-3.531-8.828-8.828c0-5.297,3.531-8.828,8.828-8.828h35.31
		c5.297,0,8.828,3.531,8.828,8.828C450.207,301.021,446.676,304.552,441.379,304.552z"/>
	<path style="fill:#8697CB;" d="M441.379,339.862h-52.966c-5.297,0-8.828-3.531-8.828-8.828s3.531-8.828,8.828-8.828h52.966
		c5.297,0,8.828,3.531,8.828,8.828S446.676,339.862,441.379,339.862z"/>
</g>
<path style="fill:#71C285;" d="M150.069,163.31c0,15.007-11.476,26.483-26.483,26.483s-26.483-11.476-26.483-26.483
	c0-15.007,11.476-26.483,26.483-26.483S150.069,148.303,150.069,163.31"/>
<path style="fill:#F29C1F;" d="M291.31,163.31c0,15.007-11.476,26.483-26.483,26.483c-15.007,0-26.483-11.476-26.483-26.483
	c0-15.007,11.476-26.483,26.483-26.483C279.835,136.828,291.31,148.303,291.31,163.31"/>
<path style="fill:#F3D55B;" d="M203.034,286.897c0,15.007-11.476,26.483-26.483,26.483c-15.007,0-26.483-11.476-26.483-26.483
	s11.476-26.483,26.483-26.483C191.559,260.414,203.034,271.89,203.034,286.897"/>
<g>
</g>
<g>
</g>
<g>
</g>
<g>
</g>
<g>
</g>
<g>
</g>
<g>
</g>
<g>
</g>
<g>
</g>
<g>
</g>
<g>
</g>
<g>
</g>
<g>
</g>
<g>
</g>
<g>
</g>
</svg>
