<?xml version="1.0" encoding="utf-8"?>
<!-- Generator: Adobe Illustrator 16.0.0, SVG Export Plug-In . SVG Version: 6.00 Build 0)  -->
<!DOCTYPE svg PUBLIC "-//W3C//DTD SVG 1.1//EN" "http://www.w3.org/Graphics/SVG/1.1/DTD/svg11.dtd">
<svg version="1.1" id="Capa_1" xmlns="http://www.w3.org/2000/svg" xmlns:xlink="http://www.w3.org/1999/xlink" x="0px" y="0px"
	 width="32px" height="32px" viewBox="0 0 32 32" enable-background="new 0 0 32 32" xml:space="preserve">
<g>
	<circle fill="#67DDE0" cx="18" cy="14" r="14"/>
</g>
<path fill="#75EA9C" d="M31.5,13.5c-0.025-0.024-0.051-0.048-0.077-0.072c-2.024-1.842-5.936-0.915-6.923,0.072
	c-1,1,1.235,3.479-2,5c-3.021,1.42-0.813,2.688-4,4c-2.067,0.852-4,0-3-3c1-3-5.888-1.634-4-7c1.05-2.983,3.885-2.252,8-2
	c3.897,0.239,3-4,1-5s-7,3-8,1s4-6,4-6s6.812-0.475,10.753,3.434s4.222,9.542,4.222,9.542"/>
<g>
	<path fill="#4D5152" d="M18,1c7.168,0,13,5.832,13,13c0,7.168-5.832,13-13,13c-7.168,0-13-5.832-13-13C5,6.832,10.832,1,18,1 M18,0
		C10.268,0,4,6.268,4,14c0,7.732,6.268,14,14,14c7.732,0,14-6.268,14-14C32,6.268,25.732,0,18,0L18,0z"/>
</g>
<path fill="none" stroke="#4D5152" stroke-miterlimit="10" d="M16.5,0.5c0,0-5,4-4,6s6-2,8-1s2.897,5.239-1,5
	c-4.115-0.252-6.95-0.983-8,2c-1.888,5.366,5,4,4,7c-1,3,0.932,3.852,3,3c3.188-1.313,0.979-2.58,4-4c3.235-1.521,1-4,2-5
	s5-1.938,7,0"/>
<path fill="#FFE4A9" d="M26.3,28.89l-0.51,0.261C22.6,30.74,20.08,32,17,32c-2.94,0-10.91-2.59-12.16-3H0v-9h4
	c0.38,0,0.59,0,1.29-0.71c1.08-1.07,2.28-1.6,3.68-1.6c1.16,0,2.26,0.359,3.32,0.71C13.25,18.71,14.16,19,15,19c2.39,0,6,0,6,2.5
	S19.01,24,16,24h-0.1c-0.5,0-1.09,0-1.47,0.04c0.43,1.19,1.01,1.38,2.89,2.01c0.3,0.101,0.64,0.15,1.01,0.15
	c1.32,0,2.86-0.641,4.21-1.21C23.8,24.46,24.89,24,25.85,24s1.841,0.78,2.091,1.84C28.16,26.81,27.85,28.12,26.3,28.89z"/>
<rect y="20" fill="#67DDE0" width="4" height="9"/>
<path fill="#4D5152" d="M27.94,25.84C27.69,24.78,26.81,24,25.85,24s-2.05,0.46-3.31,0.99c-1.35,0.569-2.89,1.21-4.21,1.21
	c-0.37,0-0.71-0.05-1.01-0.15c-1.88-0.63-2.46-0.819-2.891-2.01C14.81,24,15.4,24,15.9,24H16c3.01,0,5,0,5-2.5S17.39,19,15,19
	c-0.84,0-1.75-0.29-2.71-0.6c-1.06-0.351-2.16-0.71-3.32-0.71c-1.4,0-2.6,0.529-3.68,1.6C4.59,20,4.38,20,4,20H0v9h4.84
	c1.25,0.41,9.22,3,12.16,3c3.08,0,5.6-1.26,8.79-2.85l0.51-0.261C27.85,28.12,28.16,26.81,27.94,25.84z M3,28H1v-7h2V28z M25.85,28
	C22.46,29.69,20,31,17,31S5,28,5,28H4v-7c0.52,0,1,0,2-1c0.98-0.98,1.97-1.31,2.97-1.31c2,0,4.03,1.31,6.03,1.31s5,0,5,1.5
	S19,23,16,23h-0.1c-1.93,0-2.86,0.01-2.5,1.12C14,26,14.97,26.32,17,27c0.43,0.14,0.88,0.2,1.33,0.2c2.729,0,5.8-2.2,7.52-2.2
	C26.85,25,27.85,27,25.85,28z"/>
</svg>