<?xml version="1.0" encoding="iso-8859-1"?>
<!-- Generator: Adobe Illustrator 16.0.0, SVG Export Plug-In . SVG Version: 6.00 Build 0)  -->
<!DOCTYPE svg PUBLIC "-//W3C//DTD SVG 1.1//EN" "http://www.w3.org/Graphics/SVG/1.1/DTD/svg11.dtd">
<svg xmlns="http://www.w3.org/2000/svg" xmlns:xlink="http://www.w3.org/1999/xlink" version="1.1" id="Capa_1" x="0px" y="0px" width="512px" height="512px" viewBox="0 0 31.387 31.387" style="enable-background:new 0 0 31.387 31.387;" xml:space="preserve">
<g>
	<g>
		<path d="M26.016,22.717L29.762,6.9L12.873,5.244l-2.419,12.695h-0.002L0.228,19.453L13.87,24.35L26.016,22.717z M13.565,6.361    l14.496,1.704l-3.154,13.324l-13.512-3.821L13.565,6.361z M10.474,22.439L7.126,21.16l1.614-0.215l3.757,1.253L10.474,22.439z" fill="#006DF0"/>
		<polygon points="30.548,7.347 26.814,23.271 13.824,25.169 13.824,25.164 0,20.107 0,20.891 13.731,26.143 27.52,23.952     31.387,7.93   " fill="#006DF0"/>
		<polygon points="16.46,11.162 17.73,11.41 16.738,16.168 17.744,16.401 18.734,11.602 20.453,11.937 19.436,16.91 20.484,17.153     21.499,12.139 22.869,12.431 21.812,17.607 22.902,17.834 23.957,12.616 25.021,12.823 25.029,12.173 14.543,10.193     14.534,10.788 15.492,10.976 14.494,15.65 15.464,15.873   " fill="#006DF0"/>
		<polygon points="21.749,8.223 14.494,9.582 26.093,11.809   " fill="#006DF0"/>
		<polygon points="23.583,18.831 23.583,18.459 23.143,18.331 13.739,15.806 13.297,15.682 13.297,16.378 12.964,16.282     12.964,16.979 24.047,20.1 24.047,19.344 23.583,19.21   " fill="#006DF0"/>
	</g>
</g>
<g>
</g>
<g>
</g>
<g>
</g>
<g>
</g>
<g>
</g>
<g>
</g>
<g>
</g>
<g>
</g>
<g>
</g>
<g>
</g>
<g>
</g>
<g>
</g>
<g>
</g>
<g>
</g>
<g>
</g>
</svg>
