<?xml version="1.0" encoding="iso-8859-1"?>
<!-- Generator: Adobe Illustrator 19.0.0, SVG Export Plug-In . SVG Version: 6.00 Build 0)  -->
<svg version="1.1" id="Layer_1" xmlns="http://www.w3.org/2000/svg" xmlns:xlink="http://www.w3.org/1999/xlink" x="0px" y="0px"
	 viewBox="0 0 512 512" style="enable-background:new 0 0 512 512;" xml:space="preserve">
<g>
	<path style="fill:#F9BC35;" d="M389.565,378.435V83.478c0-9.22-7.475-16.696-16.696-16.696H72.348
		c-9.22,0-16.696,7.475-16.696,16.696v294.956H389.565z"/>
	<path style="fill:#F9BC35;" d="M372.87,66.783H222.609v311.652h166.956V83.478C389.565,74.258,382.09,66.783,372.87,66.783z"/>
</g>
<path style="fill:#DAE2F2;" d="M439.652,512h-83.478V66.783h83.478c9.22,0,16.696,7.475,16.696,16.696v411.826
	C456.348,504.525,448.873,512,439.652,512z"/>
<g>
	<path style="fill:#A66342;" d="M205.913,166.957H139.13c-9.217,0-16.696-7.473-16.696-16.696s7.479-16.696,16.696-16.696h66.783
		c9.217,0,16.696,7.473,16.696,16.696S215.13,166.957,205.913,166.957z"/>
	<path style="fill:#A66342;" d="M306.087,233.739H139.13c-9.217,0-16.696-7.473-16.696-16.696s7.479-16.696,16.696-16.696h166.957
		c9.217,0,16.696,7.473,16.696,16.696S315.304,233.739,306.087,233.739z"/>
</g>
<path style="fill:#995B3D;" d="M306.087,200.348h-83.478v33.391h83.478c9.217,0,16.696-7.473,16.696-16.696
	S315.304,200.348,306.087,200.348z"/>
<path style="fill:#7BCC29;" d="M389.565,363.409l-52.313,3.896c0,0,52.313,16.473,52.313,144.696H72.348
	c-9.238,0-16.696-7.457-16.696-16.696V284.828c14.136-4.23,29.05-6.567,44.522-6.567c49.753,0,93.941,23.485,122.435,59.882
	c6.901,8.793,12.911,18.365,17.809,28.494c21.037-16.918,47.75-27.158,76.8-27.158C344.264,339.478,369.308,348.383,389.565,363.409
	z"/>
<path style="fill:#6EB825;" d="M389.565,512H222.609V338.143c6.901,8.793,12.911,18.365,17.809,28.494
	c21.037-16.918,47.75-27.158,76.8-27.158c27.047,0,52.09,8.904,72.348,23.93L343.93,420.73L384,474.156L389.565,512z"/>
<path style="fill:#E6EEFF;" d="M306.087,0c-9.217,0-16.696,7.473-16.696,16.696v445.217c0,9.223,7.479,16.696,16.696,16.696h16.696
	h27.826c20.877,0,37.966,12.76,38.957,33.391V83.478C389.565,37.446,352.119,0,306.087,0z"/>
<g>
</g>
<g>
</g>
<g>
</g>
<g>
</g>
<g>
</g>
<g>
</g>
<g>
</g>
<g>
</g>
<g>
</g>
<g>
</g>
<g>
</g>
<g>
</g>
<g>
</g>
<g>
</g>
<g>
</g>
</svg>
