<?xml version="1.0" encoding="iso-8859-1"?>
<!-- Generator: Adobe Illustrator 19.0.0, SVG Export Plug-In . SVG Version: 6.00 Build 0)  -->
<svg version="1.1" id="Capa_1" xmlns="http://www.w3.org/2000/svg" xmlns:xlink="http://www.w3.org/1999/xlink" x="0px" y="0px"
	 viewBox="0 0 512 512" style="enable-background:new 0 0 512 512;" xml:space="preserve">
<path style="fill:#95D122;" d="M416,28.235h-32V9.412h32c5.198,0,9.412,4.213,9.412,9.412l0,0
	C425.412,24.022,421.199,28.235,416,28.235z"/>
<path style="fill:#A6A6A5;" d="M429.177,32v28.235H143.059l0,0c0-16.634,13.484-30.118,30.118-30.118H416
	c6.237,0,11.294-5.057,11.294-11.294l0,0c0-6.237-5.057-11.294-11.294-11.294l0,0c7.277,0,13.176,5.899,13.176,13.176V32z"/>
<path style="fill:#FFFFFF;" d="M143.059,67.765L143.059,67.765c0-8.316,6.742-15.059,15.059-15.059h306.824v22.588"/>
<path style="fill:#ED1C24;" d="M141.177,60.235c0-28.358-23.226-51.291-51.692-50.817C61.618,9.884,39.53,33.201,39.53,61.072
	v385.082c0,28.049,22.738,50.787,50.787,50.787h50.86V60.235z"/>
<path style="fill:#B2151B;" d="M141.177,496.941h-32V18.824l0,0c17.673,0,32,14.327,32,32V496.941z"/>
<path style="fill:#95D122;" d="M41.45,58.256c-1.1,28.971,22.059,52.803,50.786,52.803h28.234v385.882H92.236
	c-28.726,0-51.886-23.832-50.786-52.803V60.235"/>
<g>
	<path style="fill:#709D1A;" d="M69.685,444.138V106.67c-17.323-7.722-29.519-24.847-30.118-44.893v382.362
		c-1.1,28.971,22.059,52.803,50.785,52.803h28.235v-0.049C90.742,495.877,68.609,472.472,69.685,444.138z"/>
	<path style="fill:#709D1A;" d="M39.568,58.256c-0.045,1.184-0.035,2.355,0,3.521v-1.541V58.256z"/>
</g>
<path style="fill:#95D122;" d="M141.177,94.118v410.353h331.294V75.294H156.236c-8.316,0-15.059-6.742-15.059-15.059"/>
<rect x="139.294" y="75.294" style="fill:#ED1C24;" width="333.171" height="331.294"/>
<rect x="141.172" y="408.466" style="fill:#709D1A;" width="60.235" height="95.995"/>
<rect x="139.294" y="75.294" style="fill:#B2151B;" width="62.118" height="331.294"/>
<rect x="176.941" y="122.348" style="fill:#FFFFFF;" width="190.113" height="28.23"/>
<path style="fill:#FBAE17;" d="M280.471,406.588c0-39.504,32.025-71.529,71.529-71.529s71.529,32.025,71.529,71.529"/>
<path style="fill:#BC8311;" d="M368.941,337.095c-5.433-1.32-11.102-2.036-16.941-2.036c-39.504,0-71.529,32.025-71.529,71.529
	h33.882C314.353,372.923,337.617,344.706,368.941,337.095z"/>
<path style="fill:#FFFFFF;" d="M252.236,376.471c-12.953,0-23.358-10.902-22.543-24.03c0.699-11.249,9.854-20.404,21.102-21.102
	c13.128-0.815,24.03,9.591,24.03,22.543v-0.942c0-7.797,6.321-14.118,14.117-14.118l0,0c7.797,0,14.118,6.321,14.118,14.118l0,0
	c0,12.995,10.534,23.529,23.529,23.529h16h-90.354V376.471z"/>
<rect x="80.936" y="52.706" width="15.059" height="22.588"/>
<path d="M374.588,158.118H171.294v-45.176h203.294V158.118z M186.353,143.059H359.53V128H186.353V143.059z"/>
<g>
	<rect x="178.819" y="218.353" style="fill:#FFFFFF;" width="120.471" height="15.059"/>
	<rect x="178.819" y="248.471" style="fill:#FFFFFF;" width="52.706" height="15.059"/>
	<rect x="246.583" y="248.471" style="fill:#FFFFFF;" width="50.824" height="15.059"/>
	<rect x="178.819" y="278.588" style="fill:#FFFFFF;" width="90.353" height="15.059"/>
	<rect x="374.583" y="451.765" style="fill:#FFFFFF;" width="15.059" height="37.647"/>
	<rect x="397.172" y="451.765" style="fill:#FFFFFF;" width="15.059" height="37.647"/>
	<rect x="419.76" y="451.765" style="fill:#FFFFFF;" width="15.059" height="37.647"/>
	<rect x="442.348" y="451.765" style="fill:#FFFFFF;" width="15.059" height="37.647"/>
</g>
<rect x="171.289" y="173.176" width="15.059" height="15.059"/>
<rect x="193.878" y="173.176" style="fill:#FFFFFF;" width="15.059" height="15.059"/>
<rect x="216.466" y="173.176" width="15.059" height="15.059"/>
<rect x="434.819" y="97.882" style="fill:#FFFFFF;" width="15.059" height="15.059"/>
<path d="M282.353,406.588h-15.059c0-11.514,2.32-22.662,6.895-33.132l13.799,6.03C284.25,388.043,282.353,397.162,282.353,406.588z"
	/>
<path d="M472.471,67.765V45.176h-37.647V18.824C434.824,8.444,426.38,0,416,0h-41.412v22.588H173.177
	c-11.874,0-22.476,5.532-29.381,14.147c-3.023-6.869-7.384-13.158-12.976-18.541C119.292,7.095,104.12,1.322,88.087,1.926
	C57.811,3.075,33.193,27.693,32.043,57.969c-0.056,1.487-0.058,2.966-0.005,4.435v381.595c-0.568,15.973,5.207,31.09,16.273,42.584
	c11.104,11.535,26.036,17.887,42.042,17.887h35.765V103.529H90.353c-11.876,0-22.955-4.713-31.194-13.272
	c-7.413-7.699-11.625-17.596-12.063-28.175v-1.847h-0.038c0-0.563,0.011-1.127,0.032-1.695
	c0.751-19.783,15.015-36.302,33.753-40.538v27.174h15.059V17.302c2.603,0.33,5.154,0.886,7.627,1.674v33.732h15.059V27.418
	c0.607,0.524,1.205,1.063,1.788,1.623c8.558,8.24,13.272,19.317,13.272,31.194c0,12.455,10.133,22.588,22.588,22.588h308.706
	v316.235h-32.357c-3.819-42.152-39.336-75.294-82.466-75.294c-16.43,0-32.368,4.866-45.886,13.868
	c-3.919-3.914-9.326-6.339-15.29-6.339c-4.802,0-9.244,1.571-12.838,4.228c-0.979-1.276-2.062-2.477-3.245-3.588
	c-6.119-5.751-14.114-8.639-22.531-8.11c-15.11,0.939-27.212,13.04-28.151,28.151c-0.522,8.41,2.358,16.411,8.11,22.53
	c5.671,6.034,13.671,9.495,21.949,9.495h90.353v-15.059h-16c-8.822,0-16-7.177-16-16c0-0.452-0.04-0.893-0.068-1.338
	c11.482-8.275,25.31-12.78,39.598-12.78c34.82,0,63.577,26.401,67.336,60.235H148.706V94.118h-15.059V512H480V67.765H472.471z
	 M47.091,444.424l0.005-0.143V99.403c0.398,0.438,0.802,0.871,1.214,1.299c11.105,11.534,26.037,17.886,42.043,17.886h20.706
	v370.824H90.353c-11.876,0-22.955-4.713-31.194-13.272C50.925,467.588,46.639,456.324,47.091,444.424z M389.647,15.059H416
	c2.076,0,3.765,1.689,3.765,3.765s-1.689,3.765-3.765,3.765h-26.353V15.059z M173.177,37.647H416c1.289,0,2.548-0.132,3.765-0.379
	v7.909H158.118c-0.616,0-1.225,0.032-1.829,0.08C160.43,40.594,166.464,37.647,173.177,37.647z M457.412,67.765H156.236
	c-2.073,0-3.953-0.842-5.317-2.204c0.945-3.079,3.814-5.326,7.199-5.326h299.294V67.765z M252.236,368.941
	c-4.2,0-8.098-1.687-10.976-4.749c-2.875-3.059-4.315-7.067-4.053-11.284c0.461-7.42,6.634-13.594,14.054-14.054
	c0.327-0.021,0.652-0.03,0.976-0.03c3.857,0,7.487,1.431,10.309,4.083c3.063,2.878,4.749,6.776,4.749,10.976h15.059v-0.942
	c0-3.633,2.956-6.589,6.589-6.589s6.589,2.956,6.589,6.589c0,5.849,1.624,11.324,4.446,16h-47.741V368.941z M464.941,496.941
	H148.706v-82.824h316.235V496.941z"/>
<path style="fill:#FFFFFF;" d="M417.883,286.118c12.953,0,23.358-10.902,22.543-24.03c-0.699-11.249-9.853-20.404-21.102-21.102
	c-13.128-0.815-24.03,9.591-24.03,22.543v-0.942c0-7.797-6.321-14.118-14.117-14.118l0,0c-7.797,0-14.118,6.321-14.118,14.118l0,0
	c0,12.995-10.534,23.529-23.529,23.529H327.53h90.353V286.118z"/>
<path d="M417.883,293.647H327.53v-15.059h16c8.822,0,16.001-7.177,16.001-16c0-11.937,9.711-21.648,21.648-21.648
	c4.802,0,9.244,1.571,12.838,4.228c0.979-1.276,2.062-2.477,3.245-3.588c6.119-5.751,14.12-8.636,22.53-8.11
	c15.111,0.939,27.212,13.04,28.151,28.151c0.522,8.41-2.358,16.412-8.11,22.531C434.161,290.187,426.161,293.647,417.883,293.647z
	 M370.142,278.588h47.74c4.2,0,8.098-1.687,10.976-4.749c2.875-3.059,4.315-7.067,4.053-11.285
	c-0.46-7.42-6.634-13.593-14.054-14.054c-4.22-0.261-8.225,1.178-11.284,4.053c-3.063,2.878-4.749,6.776-4.749,10.976h-15.059
	v-0.942c0-3.633-2.956-6.589-6.589-6.589s-6.589,2.956-6.589,6.589C374.588,268.437,372.964,273.912,370.142,278.588z"/>
<g>
</g>
<g>
</g>
<g>
</g>
<g>
</g>
<g>
</g>
<g>
</g>
<g>
</g>
<g>
</g>
<g>
</g>
<g>
</g>
<g>
</g>
<g>
</g>
<g>
</g>
<g>
</g>
<g>
</g>
</svg>
