<?xml version="1.0" encoding="iso-8859-1"?>
<!-- Generator: Adobe Illustrator 19.0.0, SVG Export Plug-In . SVG Version: 6.00 Build 0)  -->
<svg version="1.1" id="Layer_1" xmlns="http://www.w3.org/2000/svg" xmlns:xlink="http://www.w3.org/1999/xlink" x="0px" y="0px"
	 viewBox="0 0 511.999 511.999" style="enable-background:new 0 0 511.999 511.999;" xml:space="preserve">
<g>
	<g>
		<g>
			<path style="fill:#5C546A;" d="M84.516,343.25c-3.023,0-5.922-1.719-7.273-4.648c-1.852-4.008-0.102-8.766,3.914-10.617
				l106.352-49.086c4.023-1.852,8.766-0.094,10.617,3.914s0.102,8.766-3.914,10.617L87.859,342.516
				C86.773,343.016,85.633,343.25,84.516,343.25z"/>
		</g>
	</g>
	<g>
		<g>
			<path style="fill:#5C546A;" d="M205.305,213.086c-2.047,0-4.094-0.781-5.656-2.344l-70.461-70.461
				c-3.125-3.125-3.125-8.188,0-11.313s8.188-3.125,11.312,0l70.461,70.461c3.125,3.125,3.125,8.187,0,11.312
				C209.398,212.305,207.351,213.086,205.305,213.086z"/>
		</g>
	</g>
	<g>
		<g>
			<path style="fill:#5C546A;" d="M307.133,213.086c-2.047,0-4.094-0.781-5.656-2.344c-3.125-3.125-3.125-8.188,0-11.312
				L402.969,97.945c3.125-3.125,8.188-3.125,11.313,0s3.125,8.187,0,11.312L312.789,210.742
				C311.226,212.305,309.18,213.086,307.133,213.086z"/>
		</g>
	</g>
	<g>
		<g>
			<path style="fill:#5C546A;" d="M449.594,457.375c-2.047,0-4.094-0.781-5.656-2.344L301.469,312.562
				c-3.125-3.125-3.125-8.187,0-11.312s8.188-3.125,11.312,0L455.25,443.719c3.125,3.125,3.125,8.188,0,11.313
				C453.687,456.594,451.64,457.375,449.594,457.375z"/>
		</g>
	</g>
	<g>
		<g>
			<path style="fill:#5C546A;" d="M269.305,408c-4.094,0-7.578-3.125-7.961-7.273l-6.578-72.305
				c-0.398-4.398,2.844-8.297,7.242-8.695c4.477-0.383,8.289,2.852,8.695,7.242l6.578,72.305c0.398,4.398-2.844,8.297-7.242,8.695
				C269.789,407.992,269.547,408,269.305,408z"/>
		</g>
	</g>
	<g>
		<circle style="fill:#FF4F19;" cx="256.219" cy="256" r="80"/>
	</g>
	<g>
		<circle style="fill:#FF8C62;" cx="276" cy="236" r="28"/>
	</g>
	<g>
		<circle style="fill:#FF9100;" cx="47.89" cy="351.89" r="47.89"/>
	</g>
	<g>
		<circle style="fill:#FFCD00;" cx="59.732" cy="339.918" r="16.762"/>
	</g>
	<g>
		<circle style="fill:#FFCD00;" cx="448.109" cy="63.89" r="63.89"/>
	</g>
	<g>
		<circle style="fill:#FFE671;" cx="463.907" cy="47.918" r="22.362"/>
	</g>
	<g>
		<circle style="fill:#00C37A;" cx="111.89" cy="112.11" r="39.89"/>
	</g>
	<g>
		<circle style="fill:#60DC4D;" cx="121.754" cy="102.137" r="13.962"/>
	</g>
	<g>
		<circle style="fill:#4CD7FF;" cx="471.89" cy="472.109" r="39.89"/>
	</g>
	<g>
		<circle style="fill:#AEEFFF;" cx="481.754" cy="462.137" r="13.962"/>
	</g>
	<g>
		<circle style="fill:#868491;" cx="272.109" cy="432.109" r="39.89"/>
	</g>
	<g>
		<circle style="fill:#B4B6BC;" cx="281.973" cy="422.137" r="13.962"/>
	</g>
</g>
<g>
</g>
<g>
</g>
<g>
</g>
<g>
</g>
<g>
</g>
<g>
</g>
<g>
</g>
<g>
</g>
<g>
</g>
<g>
</g>
<g>
</g>
<g>
</g>
<g>
</g>
<g>
</g>
<g>
</g>
</svg>
