<?xml version="1.0" encoding="iso-8859-1"?>
<!-- Generator: Adobe Illustrator 19.0.0, SVG Export Plug-In . SVG Version: 6.00 Build 0)  -->
<svg version="1.1" id="Layer_1" xmlns="http://www.w3.org/2000/svg" xmlns:xlink="http://www.w3.org/1999/xlink" x="0px" y="0px"
	 viewBox="0 0 512 512" style="enable-background:new 0 0 512 512;" xml:space="preserve">
<g>
	<path style="fill:#9AD14B;" d="M285.017,64.165c12.558,12.57,20.334,29.922,20.334,49.097c-38.35,0-69.431-31.081-69.431-69.431
		C255.084,43.831,272.447,51.607,285.017,64.165z"/>
	<path style="fill:#9AD14B;" d="M354.291,135.926c0,27.024-21.916,48.94-48.94,48.94c0-13.512,5.47-25.744,14.333-34.607
		C328.535,141.408,340.767,135.926,354.291,135.926z"/>
	<path style="fill:#9AD14B;" d="M305.352,113.262c0-27.809,11.266-52.985,29.499-71.206c18.221-18.221,43.397-29.499,71.206-29.499
		C406.057,68.174,360.969,113.262,305.352,113.262z"/>
	<rect x="296.295" y="104.207" style="fill:#9AD14B;" width="18.112" height="118.455"/>
</g>
<path style="fill:#B27214;" d="M440.869,342.807L261.637,456.77c-172.27-28.175-66.348-186.836-66.348-186.836
	c24.633-34.124,64.758-56.33,110.063-56.33C378.115,213.605,437.488,270.876,440.869,342.807z"/>
<g>
	<path style="fill:#995C0D;" d="M302.52,335.447c0,0,12.6,40.335,63.339,48.83c50.739,8.495-94.161,62.833-94.161,62.833
		l-121.957-30.187l54.337-118.335"/>
	<path style="fill:#995C0D;" d="M215.091,367.607c3.434-73.069,55.347-133.437,124.298-149.685
		c-10.878-2.811-22.282-4.318-34.038-4.318c-72.764,0-132.136,57.272-135.517,129.202l85.986,47.539
		c1.183,0.653,2.394,1.245,3.625,1.783L215.091,367.607z"/>
</g>
<path style="fill:#FFD3AE;" d="M498.008,379.744l-145.479,91.951c-14.623,9.237-32.083,12.896-49.193,10.312l-171.827-25.961
	c-8.839-1.328-17.871,0.652-25.333,5.567l-57.537,37.831L16.18,419.398L0,379.503l34.172-21.035
	c12.341-7.595,23.739-16.531,34.015-26.625c10.264-10.095,19.392-21.349,27.205-33.544c13.705-21.457,37.469-34.655,62.923-34.184
	c5.796,0.109,11.592,0.725,17.34,1.884l19.634,3.936l99.775,19.996c12.401,2.487,20.721,13.379,20.721,25.273
	c0,2.765-0.447,5.591-1.401,8.38c-4.081,11.882-16.12,19.091-28.521,17.074l-62.645-10.179c-1.268-0.205-2.524-0.302-3.767-0.302
	c-11.821,0-22.085,9.02-23.184,21.216c-1.099,12.123,7.317,23.063,19.32,25.092l110.631,18.74c9.829,1.666,19.936-0.06,28.666-4.878
	l85.986-47.539l26.589-14.707c4.588-2.536,9.563-3.743,14.49-3.743c9.938,0,19.634,4.939,25.333,13.874
	C516.229,352.249,512.075,370.869,498.008,379.744z"/>
<path style="fill:#E5B48F;" d="M175.654,265.998c0,0-38.33,13.858-47.911,53.724c-3.173,13.2-10.62,24.979-21.533,33.055
	l-90.03,66.621L0,379.503l34.172-21.035c12.341-7.595,23.739-16.531,34.015-26.625c10.264-10.095,19.392-21.349,27.205-33.544
	c13.705-21.457,37.469-34.655,62.923-34.184C164.111,264.223,169.907,264.839,175.654,265.998z"/>
<g>
</g>
<g>
</g>
<g>
</g>
<g>
</g>
<g>
</g>
<g>
</g>
<g>
</g>
<g>
</g>
<g>
</g>
<g>
</g>
<g>
</g>
<g>
</g>
<g>
</g>
<g>
</g>
<g>
</g>
</svg>
